<?xml version="1.0" standalone="no"?><!-- Generator: Gravit.io --><svg xmlns="http://www.w3.org/2000/svg" xmlns:xlink="http://www.w3.org/1999/xlink" style="isolation:isolate" viewBox="0 0 352.852 151.498" width="352.852" height="151.498"><defs><clipPath id="_clipPath_j211d0BoNiKAr0U8ak2CmTePGWcIi7cV"><rect width="352.852" height="151.498"/></clipPath></defs><g clip-path="url(#_clipPath_j211d0BoNiKAr0U8ak2CmTePGWcIi7cV)"><path d=" M 352.852 75.749 C 352.869 117.566 318.984 151.48 277.166 151.498 C 235.349 151.515 201.435 117.629 201.417 75.812 L 201.417 75.749 C 201.4 33.931 235.286 0.017 277.103 0 C 318.921 -0.018 352.835 33.868 352.852 75.685 L 352.852 75.749 Z " fill="rgb(28,126,214)"/><path d=" M 51.973 87.463 L 69.551 87.463 L 69.551 87.463 Q 68.555 101.232 59.385 109.142 L 59.385 109.142 L 59.385 109.142 Q 50.215 117.052 35.215 117.052 L 35.215 117.052 L 35.215 117.052 Q 18.809 117.052 9.404 106.007 L 9.404 106.007 L 9.404 106.007 Q 0 94.963 0 75.685 L 0 75.685 L 0 70.47 L 0 70.47 Q 0 58.166 4.336 48.791 L 4.336 48.791 L 4.336 48.791 Q 8.672 39.416 16.729 34.406 L 16.729 34.406 L 16.729 34.406 Q 24.785 29.396 35.449 29.396 L 35.449 29.396 L 35.449 29.396 Q 50.215 29.396 59.238 37.306 L 59.238 37.306 L 59.238 37.306 Q 68.262 45.216 69.668 59.513 L 69.668 59.513 L 52.09 59.513 L 52.09 59.513 Q 51.445 51.252 47.49 47.531 L 47.49 47.531 L 47.49 47.531 Q 43.535 43.81 35.449 43.81 L 35.449 43.81 L 35.449 43.81 Q 26.66 43.81 22.295 50.109 L 22.295 50.109 L 22.295 50.109 Q 17.93 56.408 17.813 69.65 L 17.813 69.65 L 17.813 76.095 L 17.813 76.095 Q 17.813 89.923 22.002 96.31 L 22.002 96.31 L 22.002 96.31 Q 26.191 102.697 35.215 102.697 L 35.215 102.697 L 35.215 102.697 Q 43.359 102.697 47.373 98.976 L 47.373 98.976 L 47.373 98.976 Q 51.387 95.256 51.973 87.463 L 51.973 87.463 Z  M 83.32 36.896 L 100.254 36.896 L 100.254 52.482 L 111.094 52.482 L 111.094 64.904 L 100.254 64.904 L 100.254 96.545 L 100.254 96.545 Q 100.254 100.06 101.602 101.584 L 101.602 101.584 L 101.602 101.584 Q 102.949 103.107 106.758 103.107 L 106.758 103.107 L 106.758 103.107 Q 109.57 103.107 111.738 102.697 L 111.738 102.697 L 111.738 115.529 L 111.738 115.529 Q 106.758 117.052 101.484 117.052 L 101.484 117.052 L 101.484 117.052 Q 83.672 117.052 83.32 99.064 L 83.32 99.064 L 83.32 64.904 L 74.063 64.904 L 74.063 52.482 L 83.32 52.482 L 83.32 36.896 Z  M 156.387 52.072 L 156.152 68.361 L 156.152 68.361 Q 152.695 67.892 150.059 67.892 L 150.059 67.892 L 150.059 67.892 Q 140.449 67.892 137.461 74.396 L 137.461 74.396 L 137.461 115.881 L 120.527 115.881 L 120.527 52.482 L 136.523 52.482 L 136.992 60.041 L 136.992 60.041 Q 142.09 51.31 151.113 51.31 L 151.113 51.31 L 151.113 51.31 Q 153.926 51.31 156.387 52.072 L 156.387 52.072 Z  M 182.168 25.881 L 182.168 115.881 L 165.176 115.881 L 165.176 25.881 L 182.168 25.881 Z " fill-rule="evenodd" fill="rgb(76,77,74)"/><path d=" M 311.953 30.568 L 311.953 115.881 L 294.375 115.881 L 260.156 59.748 L 260.156 115.881 L 242.578 115.881 L 242.578 30.568 L 260.156 30.568 L 294.434 86.818 L 294.434 30.568 L 311.953 30.568 Z " fill="rgb(255,255,255)"/></g></svg>