<?xml version="1.0" standalone="no"?><!-- Generator: Gravit.io --><svg xmlns="http://www.w3.org/2000/svg" xmlns:xlink="http://www.w3.org/1999/xlink" style="isolation:isolate" viewBox="0 0 512 152" width="512" height="152"><defs><clipPath id="_clipPath_6OyaZT5LofoXiaLn0HArSbyAHlFVDkDX"><rect width="512" height="152"/></clipPath></defs><g clip-path="url(#_clipPath_6OyaZT5LofoXiaLn0HArSbyAHlFVDkDX)"><path d=" M 211.012 87.91 L 228.59 87.91 L 228.59 87.91 Q 227.594 101.68 218.424 109.59 L 218.424 109.59 L 218.424 109.59 Q 209.254 117.5 194.254 117.5 L 194.254 117.5 L 194.254 117.5 Q 177.848 117.5 168.443 106.455 L 168.443 106.455 L 168.443 106.455 Q 159.039 95.41 159.039 76.133 L 159.039 76.133 L 159.039 70.918 L 159.039 70.918 Q 159.039 58.613 163.375 49.238 L 163.375 49.238 L 163.375 49.238 Q 167.711 39.863 175.768 34.854 L 175.768 34.854 L 175.768 34.854 Q 183.824 29.844 194.488 29.844 L 194.488 29.844 L 194.488 29.844 Q 209.254 29.844 218.277 37.754 L 218.277 37.754 L 218.277 37.754 Q 227.301 45.664 228.707 59.961 L 228.707 59.961 L 211.129 59.961 L 211.129 59.961 Q 210.484 51.699 206.529 47.979 L 206.529 47.979 L 206.529 47.979 Q 202.574 44.258 194.488 44.258 L 194.488 44.258 L 194.488 44.258 Q 185.699 44.258 181.334 50.557 L 181.334 50.557 L 181.334 50.557 Q 176.969 56.855 176.852 70.098 L 176.852 70.098 L 176.852 76.543 L 176.852 76.543 Q 176.852 90.371 181.041 96.758 L 181.041 96.758 L 181.041 96.758 Q 185.23 103.145 194.254 103.145 L 194.254 103.145 L 194.254 103.145 Q 202.398 103.145 206.412 99.424 L 206.412 99.424 L 206.412 99.424 Q 210.426 95.703 211.012 87.91 L 211.012 87.91 L 211.012 87.91 Z  M 242.359 37.344 L 259.293 37.344 L 259.293 52.93 L 270.133 52.93 L 270.133 65.352 L 259.293 65.352 L 259.293 96.992 L 259.293 96.992 Q 259.293 100.508 260.641 102.031 L 260.641 102.031 L 260.641 102.031 Q 261.988 103.555 265.797 103.555 L 265.797 103.555 L 265.797 103.555 Q 268.609 103.555 270.777 103.145 L 270.777 103.145 L 270.777 115.977 L 270.777 115.977 Q 265.797 117.5 260.523 117.5 L 260.523 117.5 L 260.523 117.5 Q 242.711 117.5 242.359 99.512 L 242.359 99.512 L 242.359 65.352 L 233.102 65.352 L 233.102 52.93 L 242.359 52.93 L 242.359 37.344 L 242.359 37.344 Z  M 315.426 52.52 L 315.191 68.809 L 315.191 68.809 Q 311.734 68.34 309.098 68.34 L 309.098 68.34 L 309.098 68.34 Q 299.488 68.34 296.5 74.844 L 296.5 74.844 L 296.5 116.328 L 279.566 116.328 L 279.566 52.93 L 295.563 52.93 L 296.031 60.488 L 296.031 60.488 Q 301.129 51.758 310.152 51.758 L 310.152 51.758 L 310.152 51.758 Q 312.965 51.758 315.426 52.52 L 315.426 52.52 L 315.426 52.52 Z  M 341.207 26.328 L 341.207 116.328 L 324.215 116.328 L 324.215 26.328 L 341.207 26.328 L 341.207 26.328 Z " fill-rule="evenodd" fill="rgb(255,255,255)"/><path d=" M 511.891 76.196 C 511.908 118.014 478.023 151.927 436.205 151.945 C 394.388 151.962 360.474 118.077 360.457 76.259 L 360.457 76.196 C 360.439 34.378 394.325 0.465 436.143 0.448 C 477.96 0.43 511.874 34.316 511.891 76.133 L 511.891 76.196 Z  M 470.992 31.016 L 470.992 116.328 L 453.414 116.328 L 419.195 60.195 L 419.195 116.328 L 401.617 116.328 L 401.617 31.016 L 419.195 31.016 L 453.473 87.266 L 453.473 31.016 L 470.992 31.016 L 470.992 31.016 Z " fill-rule="evenodd" fill="rgb(255,255,255)"/></g></svg>